<svg width="319" height="67" viewBox="0 0 319 67" fill="none" xmlns="http://www.w3.org/2000/svg">
<circle cx="313.57" cy="46.9317" r="5.42979" fill="#8DC897"/>
<path d="M252.412 52.4126C263.977 52.4126 270.623 45.1707 270.642 32.8156C270.661 20.7267 264.167 13.4847 253.247 13.4847H241.626V52.4126H252.412ZM243.999 50.2077V15.6896H253.153C262.913 15.6896 268.288 22.1143 268.307 32.8156C268.345 43.6881 262.724 50.2077 252.317 50.2077H243.999Z" fill="#F9F9FA"/>
<path d="M300.313 23.2167H302.649C302.326 17.2483 297.521 12.8955 290.571 12.8955C283.658 12.8955 278.436 17.2103 278.436 23.2167C278.436 27.9687 281.703 31.1049 287.798 32.9677L292.337 34.3363C297.901 36.028 300.845 38.1948 300.845 42.2815C300.845 47.3756 296.496 50.816 290.229 50.816C284.418 50.816 280.278 47.8128 279.898 42.9848H277.468C277.886 48.9342 282.709 53.0399 290.229 53.0399C298.129 53.0399 303.18 48.478 303.18 42.3005C303.18 36.6742 298.813 33.8801 293.002 32.1314L288.748 30.8769C284.057 29.4703 280.772 27.1703 280.772 23.1407C280.772 18.4838 284.836 15.1004 290.514 15.1004C296.097 15.1004 299.914 18.3888 300.313 23.2167Z" fill="#F9F9FA"/>
<path d="M11.8699 53.5662C9.9567 53.5662 8.2517 53.2343 6.75494 52.5705C5.25818 51.8937 4.07379 50.898 3.20176 49.5835C2.34275 48.2559 1.91325 46.603 1.91325 44.6247C1.91325 42.9587 2.21911 41.5596 2.83083 40.4272C3.44255 39.2949 4.27552 38.3838 5.32976 37.694C6.384 37.0042 7.58141 36.4836 8.92198 36.1322C10.2756 35.7808 11.6942 35.5335 13.178 35.3903C14.922 35.2081 16.3277 35.0389 17.3949 34.8827C18.4622 34.7135 19.2366 34.4662 19.7182 34.1408C20.1997 33.8155 20.4405 33.3339 20.4405 32.6961V32.579C20.4405 31.3426 20.0501 30.3859 19.2691 29.7091C18.5012 29.0323 17.408 28.6939 15.9893 28.6939C14.4925 28.6939 13.3016 29.0258 12.4166 29.6896C11.5315 30.3404 10.9459 31.1603 10.6595 32.1495L2.96749 31.5248C3.35795 29.7026 4.12585 28.1278 5.27119 26.8002C6.41654 25.4596 7.89378 24.4314 9.7029 23.7156C11.525 22.9867 13.6335 22.6223 16.0283 22.6223C17.6943 22.6223 19.2887 22.8175 20.8115 23.208C22.3473 23.5985 23.7074 24.2037 24.8917 25.0236C26.0892 25.8436 27.0328 26.8978 27.7226 28.1863C28.4124 29.4618 28.7573 30.9911 28.7573 32.7742V53H20.87V48.8416H20.6357C20.1542 49.7787 19.5099 50.6052 18.703 51.321C17.896 52.0239 16.9264 52.577 15.7941 52.9805C14.6617 53.3709 13.3537 53.5662 11.8699 53.5662ZM14.2517 47.8264C15.4752 47.8264 16.5555 47.5856 17.4926 47.1041C18.4297 46.6095 19.165 45.9457 19.6986 45.1127C20.2323 44.2798 20.4991 43.3361 20.4991 42.2819V39.0997C20.2388 39.2689 19.8809 39.425 19.4253 39.5682C18.9828 39.6984 18.4817 39.822 17.9221 39.9392C17.3624 40.0433 16.8027 40.1409 16.2431 40.232C15.6834 40.3101 15.1758 40.3817 14.7203 40.4467C13.7441 40.5899 12.8916 40.8177 12.1628 41.1301C11.4339 41.4424 10.8678 41.8654 10.4643 42.399C10.0608 42.9197 9.85908 43.5704 9.85908 44.3513C9.85908 45.4837 10.2691 46.3492 11.089 46.9479C11.922 47.5336 12.9762 47.8264 14.2517 47.8264ZM43.5264 35.6636V53H35.2096V23.0128H43.1359V28.3035H43.4873C44.1511 26.5594 45.2639 25.1798 46.8258 24.1646C48.3876 23.1364 50.2813 22.6223 52.5069 22.6223C54.5894 22.6223 56.405 23.0778 57.9538 23.9889C59.5027 24.9 60.7066 26.2015 61.5656 27.8935C62.4246 29.5725 62.8541 31.5768 62.8541 33.9066V53H54.5373V35.3903C54.5503 33.5552 54.0818 32.1235 53.1317 31.0953C52.1816 30.054 50.8735 29.5334 49.2076 29.5334C48.0883 29.5334 47.0991 29.7742 46.2401 30.2558C45.3941 30.7373 44.7303 31.4402 44.2487 32.3643C43.7802 33.2753 43.5394 34.3751 43.5264 35.6636ZM69.4089 53V23.0128H77.7257V53H69.4089ZM73.5868 19.1472C72.3504 19.1472 71.2896 18.7372 70.4046 17.9173C69.5326 17.0843 69.0966 16.0886 69.0966 14.9303C69.0966 13.7849 69.5326 12.8023 70.4046 11.9823C71.2896 11.1493 72.3504 10.7328 73.5868 10.7328C74.8233 10.7328 75.8775 11.1493 76.7496 11.9823C77.6346 12.8023 78.0771 13.7849 78.0771 14.9303C78.0771 16.0886 77.6346 17.0843 76.7496 17.9173C75.8775 18.7372 74.8233 19.1472 73.5868 19.1472ZM84.3879 53V23.0128H92.3142V28.3035H92.6656C93.2904 26.5464 94.3316 25.1603 95.7893 24.1451C97.247 23.1299 98.9911 22.6223 101.021 22.6223C103.078 22.6223 104.828 23.1364 106.273 24.1646C107.718 25.1798 108.681 26.5594 109.163 28.3035H109.475C110.087 26.5855 111.193 25.2123 112.794 24.1841C114.408 23.1429 116.314 22.6223 118.514 22.6223C121.312 22.6223 123.583 23.5139 125.328 25.2969C127.085 27.067 127.963 29.579 127.963 32.8328V53H119.666V34.4727C119.666 32.8068 119.223 31.5573 118.338 30.7243C117.453 29.8913 116.347 29.4749 115.019 29.4749C113.51 29.4749 112.332 29.9564 111.486 30.9196C110.64 31.8697 110.217 33.1256 110.217 34.6875V53H102.154V34.297C102.154 32.8263 101.731 31.6549 100.885 30.7829C100.052 29.9109 98.952 29.4749 97.5854 29.4749C96.6613 29.4749 95.8283 29.7091 95.0865 30.1777C94.3576 30.6332 93.7784 31.2775 93.3489 32.1105C92.9194 32.9304 92.7047 33.8935 92.7047 34.9998V53H84.3879ZM143.084 53.5662C141.17 53.5662 139.465 53.2343 137.969 52.5705C136.472 51.8937 135.287 50.898 134.415 49.5835C133.556 48.2559 133.127 46.603 133.127 44.6247C133.127 42.9587 133.433 41.5596 134.044 40.4272C134.656 39.2949 135.489 38.3838 136.543 37.694C137.598 37.0042 138.795 36.4836 140.136 36.1322C141.489 35.7808 142.908 35.5335 144.392 35.3903C146.136 35.2081 147.541 35.0389 148.609 34.8827C149.676 34.7135 150.45 34.4662 150.932 34.1408C151.413 33.8155 151.654 33.3339 151.654 32.6961V32.579C151.654 31.3426 151.264 30.3859 150.483 29.7091C149.715 29.0323 148.622 28.6939 147.203 28.6939C145.706 28.6939 144.515 29.0258 143.63 29.6896C142.745 30.3404 142.16 31.1603 141.873 32.1495L134.181 31.5248C134.572 29.7026 135.34 28.1278 136.485 26.8002C137.63 25.4596 139.107 24.4314 140.917 23.7156C142.739 22.9867 144.847 22.6223 147.242 22.6223C148.908 22.6223 150.502 22.8175 152.025 23.208C153.561 23.5985 154.921 24.2037 156.105 25.0236C157.303 25.8436 158.246 26.8978 158.936 28.1863C159.626 29.4618 159.971 30.9911 159.971 32.7742V53H152.084V48.8416H151.849C151.368 49.7787 150.724 50.6052 149.917 51.321C149.11 52.0239 148.14 52.577 147.008 52.9805C145.875 53.3709 144.567 53.5662 143.084 53.5662ZM145.465 47.8264C146.689 47.8264 147.769 47.5856 148.706 47.1041C149.643 46.6095 150.379 45.9457 150.912 45.1127C151.446 44.2798 151.713 43.3361 151.713 42.2819V39.0997C151.452 39.2689 151.095 39.425 150.639 39.5682C150.196 39.6984 149.695 39.822 149.136 39.9392C148.576 40.0433 148.016 40.1409 147.457 40.232C146.897 40.3101 146.39 40.3817 145.934 40.4467C144.958 40.5899 144.105 40.8177 143.376 41.1301C142.648 41.4424 142.081 41.8654 141.678 42.399C141.274 42.9197 141.073 43.5704 141.073 44.3513C141.073 45.4837 141.483 46.3492 142.303 46.9479C143.136 47.5336 144.19 47.8264 145.465 47.8264ZM174.74 13.017V53H166.423V13.017H174.74ZM181.402 53V23.0128H189.719V53H181.402ZM185.58 19.1472C184.344 19.1472 183.283 18.7372 182.398 17.9173C181.526 17.0843 181.09 16.0886 181.09 14.9303C181.09 13.7849 181.526 12.8023 182.398 11.9823C183.283 11.1493 184.344 10.7328 185.58 10.7328C186.817 10.7328 187.871 11.1493 188.743 11.9823C189.628 12.8023 190.07 13.7849 190.07 14.9303C190.07 16.0886 189.628 17.0843 188.743 17.9173C187.871 18.7372 186.817 19.1472 185.58 19.1472ZM204.932 53.5662C203.019 53.5662 201.314 53.2343 199.817 52.5705C198.321 51.8937 197.136 50.898 196.264 49.5835C195.405 48.2559 194.976 46.603 194.976 44.6247C194.976 42.9587 195.281 41.5596 195.893 40.4272C196.505 39.2949 197.338 38.3838 198.392 37.694C199.446 37.0042 200.644 36.4836 201.984 36.1322C203.338 35.7808 204.757 35.5335 206.24 35.3903C207.984 35.2081 209.39 35.0389 210.457 34.8827C211.525 34.7135 212.299 34.4662 212.781 34.1408C213.262 33.8155 213.503 33.3339 213.503 32.6961V32.579C213.503 31.3426 213.112 30.3859 212.331 29.7091C211.564 29.0323 210.47 28.6939 209.052 28.6939C207.555 28.6939 206.364 29.0258 205.479 29.6896C204.594 30.3404 204.008 31.1603 203.722 32.1495L196.03 31.5248C196.42 29.7026 197.188 28.1278 198.334 26.8002C199.479 25.4596 200.956 24.4314 202.765 23.7156C204.587 22.9867 206.696 22.6223 209.091 22.6223C210.757 22.6223 212.351 22.8175 213.874 23.208C215.41 23.5985 216.77 24.2037 217.954 25.0236C219.152 25.8436 220.095 26.8978 220.785 28.1863C221.475 29.4618 221.82 30.9911 221.82 32.7742V53H213.932V48.8416H213.698C213.217 49.7787 212.572 50.6052 211.765 51.321C210.958 52.0239 209.989 52.577 208.856 52.9805C207.724 53.3709 206.416 53.5662 204.932 53.5662ZM207.314 47.8264C208.538 47.8264 209.618 47.5856 210.555 47.1041C211.492 46.6095 212.227 45.9457 212.761 45.1127C213.295 44.2798 213.561 43.3361 213.561 42.2819V39.0997C213.301 39.2689 212.943 39.425 212.488 39.5682C212.045 39.6984 211.544 39.822 210.984 39.9392C210.425 40.0433 209.865 40.1409 209.305 40.232C208.746 40.3101 208.238 40.3817 207.783 40.4467C206.806 40.5899 205.954 40.8177 205.225 41.1301C204.496 41.4424 203.93 41.8654 203.527 42.399C203.123 42.9197 202.921 43.5704 202.921 44.3513C202.921 45.4837 203.331 46.3492 204.151 46.9479C204.984 47.5336 206.039 47.8264 207.314 47.8264Z" fill="#F9F9FA"/>
</svg>
