<svg width="470" height="98" viewBox="0 0 470 98" fill="none" xmlns="http://www.w3.org/2000/svg">
<circle cx="462" cy="69.1469" r="8" fill="#8DC897"/>
<path d="M371.892 77.2227C388.931 77.2227 398.724 66.5528 398.752 48.3494C398.78 30.5381 389.211 19.8682 373.123 19.8682H356V77.2227H371.892ZM359.497 73.9741V23.1168H372.983C387.365 23.1168 395.283 32.5825 395.311 48.3494C395.367 64.3684 387.085 73.9741 371.752 73.9741H359.497Z" fill="#4545A1"/>
<path d="M442.467 34.2068H445.909C445.433 25.4132 438.354 19 428.114 19C417.929 19 410.235 25.3572 410.235 34.2068C410.235 41.2081 415.048 45.829 424.029 48.5735L430.716 50.5898C438.914 53.0823 443.251 56.2749 443.251 62.296C443.251 69.8014 436.843 74.8703 427.61 74.8703C419.049 74.8703 412.949 70.4455 412.39 63.3322H408.808C409.424 72.0978 416.53 78.1469 427.61 78.1469C439.249 78.1469 446.692 71.4257 446.692 62.324C446.692 54.0345 440.257 49.9177 431.695 47.3412L425.428 45.4929C418.517 43.4205 413.677 40.0319 413.677 34.0948C413.677 27.2335 419.664 22.2486 428.03 22.2486C436.256 22.2486 441.88 27.0935 442.467 34.2068Z" fill="#4545A1"/>
<path d="M17.4886 78.8342C14.6697 78.8342 12.1577 78.3452 9.95241 77.3672C7.74716 76.37 6.00213 74.9031 4.71733 72.9663C3.4517 71.0103 2.81889 68.5749 2.81889 65.6602C2.81889 63.2056 3.26953 61.1442 4.17081 59.4759C5.07209 57.8075 6.29936 56.4652 7.85263 55.4489C9.4059 54.4325 11.1701 53.6655 13.1452 53.1477C15.1396 52.63 17.2298 52.2656 19.4158 52.0547C21.9854 51.7862 24.0565 51.5369 25.6289 51.3068C27.2014 51.0575 28.3423 50.6932 29.0518 50.2138C29.7614 49.7344 30.1161 49.0249 30.1161 48.0852V47.9126C30.1161 46.0909 29.5408 44.6815 28.3903 43.6843C27.2589 42.6871 25.6481 42.1886 23.5579 42.1886C21.3526 42.1886 19.598 42.6776 18.294 43.6555C16.9901 44.6143 16.1271 45.8224 15.7053 47.2798L4.37216 46.3594C4.94744 43.6747 6.07884 41.3544 7.76634 39.3984C9.45384 37.4233 11.6303 35.9084 14.2958 34.8537C16.9805 33.7798 20.087 33.2429 23.6154 33.2429C26.07 33.2429 28.419 33.5305 30.6626 34.1058C32.9254 34.6811 34.9293 35.5728 36.6744 36.7809C38.4386 37.989 39.8288 39.5423 40.8452 41.4407C41.8615 43.32 42.3697 45.5732 42.3697 48.2003V78H30.7489V71.8732H30.4038C29.6942 73.2539 28.745 74.4716 27.5561 75.5263C26.3672 76.5618 24.9386 77.3768 23.2702 77.9712C21.6019 78.5465 19.6747 78.8342 17.4886 78.8342ZM20.9979 70.3775C22.8004 70.3775 24.392 70.0227 25.7727 69.3132C27.1534 68.5845 28.2369 67.6065 29.0231 66.3793C29.8093 65.152 30.2024 63.7617 30.2024 62.2085V57.5199C29.8189 57.7692 29.2915 57.9993 28.6204 58.2102C27.9684 58.402 27.2301 58.5842 26.4055 58.7567C25.581 58.9102 24.7564 59.054 23.9318 59.1882C23.1072 59.3033 22.3594 59.4087 21.6882 59.5046C20.25 59.7156 18.994 60.0511 17.9201 60.5114C16.8462 60.9716 16.0121 61.5948 15.4176 62.381C14.8232 63.1481 14.5259 64.1069 14.5259 65.2575C14.5259 66.9258 15.13 68.201 16.3381 69.0831C17.5653 69.946 19.1186 70.3775 20.9979 70.3775ZM64.1298 52.4574V78H51.8762V33.8182H63.5545V41.6133H64.0723C65.0502 39.0437 66.6898 37.011 68.9909 35.5153C71.2921 34.0004 74.0822 33.2429 77.3613 33.2429C80.4295 33.2429 83.1046 33.9141 85.3865 35.2564C87.6685 36.5987 89.4423 38.5163 90.7079 41.0092C91.9735 43.483 92.6064 46.4361 92.6064 49.8686V78H80.3528V52.0547C80.372 49.3509 79.6816 47.2415 78.2818 45.7266C76.8819 44.1925 74.9547 43.4254 72.5002 43.4254C70.851 43.4254 69.3936 43.7802 68.128 44.4897C66.8816 45.1992 65.9036 46.2347 65.1941 47.5962C64.5037 48.9386 64.149 50.5589 64.1298 52.4574ZM102.264 78V33.8182H114.517V78H102.264ZM108.419 28.1229C106.598 28.1229 105.035 27.5188 103.731 26.3107C102.446 25.0834 101.804 23.6165 101.804 21.9098C101.804 20.2223 102.446 18.7745 103.731 17.5664C105.035 16.3391 106.598 15.7255 108.419 15.7255C110.241 15.7255 111.794 16.3391 113.079 17.5664C114.383 18.7745 115.035 20.2223 115.035 21.9098C115.035 23.6165 114.383 25.0834 113.079 26.3107C111.794 27.5188 110.241 28.1229 108.419 28.1229ZM124.333 78V33.8182H136.012V41.6133H136.529C137.45 39.0245 138.984 36.9822 141.132 35.4865C143.279 33.9908 145.849 33.2429 148.84 33.2429C151.87 33.2429 154.449 34.0004 156.578 35.5153C158.707 37.011 160.126 39.0437 160.835 41.6133H161.295C162.197 39.082 163.827 37.0589 166.185 35.544C168.563 34.0099 171.372 33.2429 174.613 33.2429C178.736 33.2429 182.082 34.5565 184.652 37.1836C187.241 39.7915 188.535 43.4925 188.535 48.2866V78H176.31V50.7028C176.31 48.2482 175.658 46.4073 174.354 45.18C173.05 43.9528 171.42 43.3391 169.464 43.3391C167.24 43.3391 165.504 44.0487 164.258 45.4677C163.012 46.8675 162.388 48.718 162.388 51.0192V78H150.509V50.4439C150.509 48.277 149.885 46.5511 148.639 45.2663C147.412 43.9815 145.791 43.3391 143.778 43.3391C142.416 43.3391 141.189 43.6843 140.096 44.3746C139.022 45.0458 138.169 45.995 137.536 47.2223C136.903 48.4304 136.587 49.8494 136.587 51.4794V78H124.333ZM210.813 78.8342C207.994 78.8342 205.482 78.3452 203.277 77.3672C201.071 76.37 199.326 74.9031 198.042 72.9663C196.776 71.0103 196.143 68.5749 196.143 65.6602C196.143 63.2056 196.594 61.1442 197.495 59.4759C198.396 57.8075 199.624 56.4652 201.177 55.4489C202.73 54.4325 204.494 53.6655 206.469 53.1477C208.464 52.63 210.554 52.2656 212.74 52.0547C215.31 51.7862 217.381 51.5369 218.953 51.3068C220.526 51.0575 221.667 50.6932 222.376 50.2138C223.086 49.7344 223.44 49.0249 223.44 48.0852V47.9126C223.44 46.0909 222.865 44.6815 221.714 43.6843C220.583 42.6871 218.972 42.1886 216.882 42.1886C214.677 42.1886 212.922 42.6776 211.618 43.6555C210.314 44.6143 209.451 45.8224 209.029 47.2798L197.696 46.3594C198.272 43.6747 199.403 41.3544 201.091 39.3984C202.778 37.4233 204.955 35.9084 207.62 34.8537C210.305 33.7798 213.411 33.2429 216.94 33.2429C219.394 33.2429 221.743 33.5305 223.987 34.1058C226.25 34.6811 228.254 35.5728 229.999 36.7809C231.763 37.989 233.153 39.5423 234.169 41.4407C235.186 43.32 235.694 45.5732 235.694 48.2003V78H224.073V71.8732H223.728C223.018 73.2539 222.069 74.4716 220.88 75.5263C219.691 76.5618 218.263 77.3768 216.594 77.9712C214.926 78.5465 212.999 78.8342 210.813 78.8342ZM214.322 70.3775C216.125 70.3775 217.716 70.0227 219.097 69.3132C220.478 68.5845 221.561 67.6065 222.347 66.3793C223.134 65.152 223.527 63.7617 223.527 62.2085V57.5199C223.143 57.7692 222.616 57.9993 221.945 58.2102C221.293 58.402 220.554 58.5842 219.73 58.7567C218.905 58.9102 218.081 59.054 217.256 59.1882C216.431 59.3033 215.684 59.4087 215.012 59.5046C213.574 59.7156 212.318 60.0511 211.244 60.5114C210.17 60.9716 209.336 61.5948 208.742 62.381C208.147 63.1481 207.85 64.1069 207.85 65.2575C207.85 66.9258 208.454 68.201 209.662 69.0831C210.89 69.946 212.443 70.3775 214.322 70.3775ZM257.454 19.0909V78H245.2V19.0909H257.454ZM267.27 78V33.8182H279.523V78H267.27ZM273.425 28.1229C271.604 28.1229 270.041 27.5188 268.737 26.3107C267.452 25.0834 266.81 23.6165 266.81 21.9098C266.81 20.2223 267.452 18.7745 268.737 17.5664C270.041 16.3391 271.604 15.7255 273.425 15.7255C275.247 15.7255 276.8 16.3391 278.085 17.5664C279.389 18.7745 280.041 20.2223 280.041 21.9098C280.041 23.6165 279.389 25.0834 278.085 26.3107C276.8 27.5188 275.247 28.1229 273.425 28.1229ZM301.938 78.8342C299.119 78.8342 296.607 78.3452 294.402 77.3672C292.196 76.37 290.451 74.9031 289.167 72.9663C287.901 71.0103 287.268 68.5749 287.268 65.6602C287.268 63.2056 287.719 61.1442 288.62 59.4759C289.521 57.8075 290.749 56.4652 292.302 55.4489C293.855 54.4325 295.619 53.6655 297.594 53.1477C299.589 52.63 301.679 52.2656 303.865 52.0547C306.435 51.7862 308.506 51.5369 310.078 51.3068C311.651 51.0575 312.792 50.6932 313.501 50.2138C314.211 49.7344 314.565 49.0249 314.565 48.0852V47.9126C314.565 46.0909 313.99 44.6815 312.839 43.6843C311.708 42.6871 310.097 42.1886 308.007 42.1886C305.802 42.1886 304.047 42.6776 302.743 43.6555C301.439 44.6143 300.576 45.8224 300.154 47.2798L288.821 46.3594C289.397 43.6747 290.528 41.3544 292.216 39.3984C293.903 37.4233 296.08 35.9084 298.745 34.8537C301.43 33.7798 304.536 33.2429 308.065 33.2429C310.519 33.2429 312.868 33.5305 315.112 34.1058C317.375 34.6811 319.379 35.5728 321.124 36.7809C322.888 37.989 324.278 39.5423 325.294 41.4407C326.311 43.32 326.819 45.5732 326.819 48.2003V78H315.198V71.8732H314.853C314.143 73.2539 313.194 74.4716 312.005 75.5263C310.816 76.5618 309.388 77.3768 307.719 77.9712C306.051 78.5465 304.124 78.8342 301.938 78.8342ZM305.447 70.3775C307.25 70.3775 308.841 70.0227 310.222 69.3132C311.603 68.5845 312.686 67.6065 313.472 66.3793C314.259 65.152 314.652 63.7617 314.652 62.2085V57.5199C314.268 57.7692 313.741 57.9993 313.07 58.2102C312.418 58.402 311.679 58.5842 310.855 58.7567C310.03 58.9102 309.206 59.054 308.381 59.1882C307.556 59.3033 306.809 59.4087 306.137 59.5046C304.699 59.7156 303.443 60.0511 302.369 60.5114C301.295 60.9716 300.461 61.5948 299.867 62.381C299.272 63.1481 298.975 64.1069 298.975 65.2575C298.975 66.9258 299.579 68.201 300.787 69.0831C302.015 69.946 303.568 70.3775 305.447 70.3775Z" fill="#4545A1"/>
</svg>
